<?xml version="1.0" encoding="UTF-8" standalone="no"?>
<!DOCTYPE svg PUBLIC "-//W3C//DTD SVG 1.1//EN" "http://www.w3.org/Graphics/SVG/1.1/DTD/svg11.dtd">
<svg xmlns="http://www.w3.org/2000/svg" version="1.1" viewBox="0.00 0.00 607.00 174.00">
<path fill="#000000" d="
  M 118.12 79.79
  Q 106.89 72.81 93.01 73.11
  A 0.71 0.71 0.0 0 1 92.47 71.93
  C 103.44 59.76 120.84 58.49 132.56 69.76
  C 142.59 79.39 143.64 96.00 134.22 106.59
  A 0.66 0.66 0.0 0 1 133.07 106.20
  C 132.51 98.04 128.36 86.83 121.04 82.28
  C 119.89 81.57 119.15 80.43 118.12 79.79
  Z
  M 135.86 99.76
  C 145.14 75.88 121.87 56.33 99.70 68.72
  Q 98.44 69.42 99.53 70.37
  Q 99.63 70.45 100.46 70.57
  Q 126.94 74.23 135.14 99.74
  A 0.38 0.38 0.0 0 0 135.86 99.76
  Z"
/>
<path fill="#000000" d="
  M 343.71 96.19
  L 344.66 97.02
  A 0.56 0.56 0.0 0 1 344.29 98.00
  L 334.57 98.00
  A 0.45 0.45 0.0 0 1 334.49 97.11
  Q 336.55 96.75 336.68 94.56
  Q 337.30 84.09 336.71 73.63
  Q 336.68 73.08 336.35 72.64
  L 335.56 71.60
  A 0.58 0.58 0.0 0 1 335.86 70.69
  L 341.86 69.01
  A 0.90 0.90 0.0 0 1 343.00 69.88
  L 343.00 82.27
  A 0.44 0.44 0.0 0 0 343.72 82.61
  C 346.90 80.04 354.96 77.54 354.95 84.70
  C 354.95 87.27 354.01 96.60 357.51 97.11
  A 0.45 0.45 0.0 0 1 357.44 98.00
  L 348.57 98.00
  A 0.38 0.38 0.0 0 1 348.36 97.30
  C 350.87 95.57 349.99 89.92 349.86 86.20
  C 349.69 81.63 345.92 83.07 343.42 84.20
  A 0.71 0.71 0.0 0 0 343.00 84.86
  L 343.02 94.69
  A 1.98 1.97 -69.8 0 0 343.71 96.19
  Z"
/>
<ellipse fill="#000000" cx="0.00" cy="0.00" transform="translate(451.28,72.28) rotate(-16.5)" rx="3.34" ry="2.87"/>
<path fill="#000000" d="
  M 175.22 95.60
  L 177.57 96.96
  A 0.56 0.56 0.0 0 1 177.29 98.00
  L 164.74 97.97
  A 0.63 0.63 0.0 0 1 164.61 96.73
  C 166.78 96.26 168.00 94.82 168.00 92.47
  Q 167.99 83.51 168.00 74.58
  A 1.02 1.01 13.2 0 0 167.42 73.65
  L 164.29 72.15
  A 0.56 0.56 0.0 0 1 164.50 71.09
  Q 170.63 70.80 176.72 71.24
  Q 180.09 71.48 176.92 72.64
  C 174.13 73.66 174.35 74.15 174.10 77.13
  Q 173.85 80.23 174.05 83.19
  A 0.95 0.94 69.0 0 0 175.57 83.87
  C 179.26 81.03 183.03 78.86 184.24 73.98
  A 0.74 0.73 18.9 0 0 183.82 73.13
  L 181.37 72.07
  A 0.55 0.55 0.0 0 1 181.60 71.01
  L 192.93 71.21
  A 0.63 0.63 0.0 0 1 193.02 72.47
  C 187.31 73.37 184.81 77.96 181.44 82.15
  A 0.70 0.70 0.0 0 0 181.43 83.01
  Q 185.31 87.96 191.02 93.73
  C 193.84 96.58 200.14 99.43 200.96 93.02
  Q 201.70 87.17 200.31 73.82
  Q 200.26 73.33 199.82 73.11
  L 197.51 71.92
  A 0.54 0.54 0.0 0 1 197.69 70.90
  C 203.86 70.06 224.85 68.06 222.87 79.52
  C 221.59 86.85 214.38 87.30 208.10 87.18
  A 1.07 1.07 0.0 0 0 207.00 88.25
  L 207.00 95.16
  A 0.65 0.64 -83.2 0 0 207.49 95.79
  L 211.64 96.81
  A 0.62 0.62 0.0 0 1 211.48 98.03
  L 181.66 97.98
  A 0.53 0.53 0.0 0 1 181.39 97.00
  L 183.52 95.72
  A 0.63 0.63 0.0 0 0 183.70 94.81
  C 181.06 91.15 177.92 85.75 174.56 86.02
  Q 174.08 86.06 174.01 86.54
  Q 173.41 90.91 174.81 95.09
  A 0.92 0.88 -85.3 0 0 175.22 95.60
  Z
  M 207.00 73.10
  L 206.98 83.90
  A 1.21 1.21 0.0 0 0 208.19 85.11
  L 210.49 85.12
  A 6.24 5.73 -89.9 0 0 216.23 78.89
  L 216.23 78.15
  A 6.24 5.73 -89.9 0 0 210.51 71.90
  L 208.21 71.89
  A 1.21 1.21 0.0 0 0 207.00 73.10
  Z"
/>
<path fill="#000000" d="
  M 385.49 95.65
  L 389.64 97.10
  A 0.47 0.47 0.0 0 1 389.49 98.01
  L 375.74 97.97
  A 0.65 0.65 0.0 0 1 375.56 96.70
  Q 378.87 95.77 378.96 91.82
  Q 379.14 84.02 378.88 75.52
  A 2.63 2.61 8.2 0 0 377.06 73.10
  L 374.21 72.17
  A 0.44 0.44 0.0 0 1 374.30 71.31
  C 380.28 70.72 387.93 69.40 393.79 70.81
  C 403.46 73.12 402.08 82.82 394.44 86.30
  C 391.87 87.47 388.58 87.32 385.64 87.23
  A 0.62 0.62 0.0 0 0 385.00 87.85
  L 385.00 94.96
  A 0.73 0.73 0.0 0 0 385.49 95.65
  Z
  M 384.63 73.66
  L 384.75 83.56
  A 1.67 1.67 0.0 0 0 386.44 85.21
  L 388.13 85.19
  A 6.34 6.22 89.3 0 0 394.27 78.77
  L 394.27 78.21
  A 6.34 6.22 89.3 0 0 387.97 71.95
  L 386.28 71.97
  A 1.67 1.67 0.0 0 0 384.63 73.66
  Z"
/>
<path fill="#000000" d="
  M 271.35 95.14
  C 273.17 90.64 272.00 78.97 271.99 73.77
  A 0.80 0.79 89.6 0 0 271.19 72.97
  L 264.60 73.06
  Q 264.05 73.06 263.72 73.51
  Q 262.79 74.75 262.28 76.99
  Q 261.97 78.34 260.63 77.90
  Q 260.13 77.74 260.18 77.22
  L 260.73 71.18
  A 0.56 0.56 0.0 0 1 261.30 70.67
  L 288.05 71.19
  A 0.81 0.80 86.2 0 1 288.83 71.88
  L 289.63 77.42
  A 0.49 0.49 0.0 0 1 289.00 77.96
  L 287.62 77.55
  A 0.66 0.66 0.0 0 1 287.15 76.82
  C 287.86 71.54 281.77 72.71 278.51 73.16
  A 0.59 0.58 -3.9 0 0 278.00 73.74
  L 278.00 93.35
  A 2.88 2.87 11.4 0 0 279.77 96.00
  L 282.65 97.19
  A 0.43 0.43 0.0 0 1 282.48 98.02
  L 267.66 97.96
  A 0.55 0.54 -54.2 0 1 267.49 96.90
  L 270.62 95.84
  Q 271.15 95.66 271.35 95.14
  Z"
/>
<path fill="#000000" d="
  M 236.67 95.75
  L 238.72 96.99
  A 0.54 0.54 0.0 0 1 238.44 98.00
  L 225.62 98.00
  A 0.56 0.56 0.0 0 1 225.48 96.90
  C 228.08 96.25 229.01 94.95 229.01 92.20
  Q 229.00 84.81 229.00 77.41
  C 229.00 74.68 228.23 72.73 225.43 72.25
  A 0.57 0.57 0.0 0 1 225.52 71.12
  L 238.42 70.95
  A 0.70 0.69 39.7 0 1 238.55 72.33
  C 236.29 72.71 235.01 74.13 235.00 76.55
  C 234.99 80.70 234.02 91.78 235.92 95.00
  Q 236.20 95.47 236.67 95.75
  Z"
/>
<path fill="#000000" d="
  M 106.32 75.57
  C 118.89 78.90 128.02 88.45 131.13 101.00
  A 0.60 0.60 0.0 0 1 130.02 101.42
  Q 120.14 81.99 98.04 81.32
  Q 96.55 81.28 96.15 82.72
  Q 91.60 99.16 101.82 112.45
  A 0.63 0.63 0.0 0 1 101.08 113.41
  Q 95.38 111.03 91.58 105.68
  Q 81.54 91.54 89.40 76.16
  A 1.27 1.25 -87.8 0 1 90.04 75.56
  Q 94.94 73.54 98.24 74.28
  Q 101.99 75.12 102.97 74.99
  Q 103.77 74.89 106.32 75.57
  Z"
/>
<path fill="#000000" d="
  M 509.00 94.03
  A 1.81 1.80 -17.3 0 0 511.83 95.51
  L 514.12 93.93
  A 0.41 0.41 0.0 0 1 514.72 94.46
  Q 512.39 98.90 506.91 98.08
  C 501.57 97.29 503.44 87.27 503.68 83.78
  A 0.66 0.66 0.0 0 0 503.16 83.09
  L 501.56 82.77
  A 0.46 0.45 32.0 0 1 501.37 81.96
  Q 505.24 79.08 507.67 74.93
  A 0.55 0.55 0.0 0 1 508.67 75.06
  C 509.52 78.07 508.11 81.81 513.24 81.25
  Q 513.69 81.20 513.96 81.57
  L 514.22 81.92
  A 0.59 0.59 0.0 0 1 513.77 82.86
  L 509.61 83.07
  A 0.64 0.63 -1.4 0 0 509.00 83.70
  L 509.00 94.03
  Z"
/>
<path fill="#000000" d="
  M 448.03 104.06
  C 449.65 96.55 449.65 89.08 446.38 82.08
  A 0.59 0.59 0.0 0 1 446.76 81.26
  L 453.43 79.47
  A 0.44 0.44 0.0 0 1 453.98 79.89
  Q 453.97 88.28 454.23 96.48
  C 454.45 103.52 450.14 108.84 442.76 108.11
  Q 440.86 107.92 440.20 106.51
  A 2.51 2.51 0.0 0 1 440.89 103.49
  C 442.79 101.94 444.28 104.09 445.62 105.01
  A 1.56 1.56 0.0 0 0 448.03 104.06
  Z"
/>
<path fill="#000000" d="
  M 322.53 82.34
  C 317.04 84.02 320.47 102.38 330.86 94.10
  Q 331.28 93.76 331.59 94.19
  Q 331.79 94.46 331.78 94.73
  Q 331.78 94.96 331.51 95.23
  Q 325.03 101.80 317.34 96.15
  C 308.33 89.54 318.25 80.12 325.89 79.75
  C 329.21 79.59 332.48 80.81 331.81 84.77
  A 1.57 1.57 0.0 0 1 329.00 85.44
  C 327.85 83.89 324.71 81.67 322.53 82.34
  Z"
/>
<path fill="#000000" d="
  M 465.35 89.68
  C 465.58 94.58 470.28 96.78 474.10 93.65
  Q 474.67 93.18 475.11 93.19
  Q 475.52 93.21 475.84 93.44
  A 0.54 0.53 40.4 0 1 475.91 94.25
  C 472.45 97.74 466.78 99.76 462.42 96.94
  C 455.64 92.56 460.27 80.16 468.08 79.76
  C 472.71 79.51 476.16 83.37 476.97 87.72
  A 1.08 1.07 84.3 0 1 475.93 88.99
  L 465.90 89.10
  A 0.55 0.55 0.0 0 0 465.35 89.68
  Z
  M 466.44 88.08
  L 469.77 87.89
  A 1.33 1.33 0.0 0 0 471.02 86.48
  L 470.97 85.60
  A 3.77 2.87 86.6 0 0 467.88 82.01
  L 467.62 82.02
  A 3.77 2.87 86.6 0 0 464.98 85.96
  L 465.03 86.83
  A 1.33 1.33 0.0 0 0 466.44 88.08
  Z"
/>
<path fill="#000000" d="
  M 294.44 84.19
  C 298.80 76.63 309.82 79.40 310.70 88.30
  A 0.55 0.54 -3.9 0 1 310.17 88.90
  L 299.66 89.13
  A 0.62 0.61 -6.0 0 0 299.07 89.85
  Q 299.80 93.94 303.72 95.17
  A 1.21 1.18 40.5 0 0 304.59 95.11
  L 309.02 93.03
  A 0.53 0.53 0.0 0 1 309.67 93.84
  C 302.19 103.57 287.59 96.05 294.44 84.19
  Z
  M 299.62 87.88
  L 303.52 87.82
  A 1.26 1.26 0.0 0 0 304.76 86.55
  L 304.75 86.06
  A 3.89 2.99 89.2 0 0 301.71 82.21
  L 301.27 82.21
  A 3.89 2.99 89.2 0 0 298.34 86.14
  L 298.34 86.63
  A 1.26 1.26 0.0 0 0 299.62 87.88
  Z"
/>
<path fill="#000000" d="
  M 411.30 82.79
  A 0.37 0.36 -39.0 0 0 411.99 82.86
  Q 413.68 79.13 417.85 80.26
  A 1.13 1.13 0.0 0 1 418.63 81.00
  Q 419.39 83.33 417.93 85.33
  A 1.01 1.01 0.0 0 1 416.88 85.71
  L 414.16 85.01
  A 2.27 2.26 -76.7 0 0 411.39 86.73
  C 410.66 90.17 409.90 96.24 414.77 97.21
  A 0.40 0.40 0.0 0 1 414.70 98.00
  L 403.83 98.00
  A 0.52 0.52 0.0 0 1 403.49 97.08
  Q 406.95 94.10 406.21 89.42
  C 405.87 87.24 406.50 84.52 403.47 83.37
  A 0.60 0.60 0.0 0 1 403.34 82.32
  Q 406.35 80.22 410.00 79.92
  Q 410.68 79.87 410.82 80.53
  L 411.30 82.79
  Z"
/>
<path fill="#000000" d="
  M 442.9934 87.7838
  A 10.69 9.43 -8.1 0 1 433.7387 98.6259
  A 10.69 9.43 -8.1 0 1 421.8266 90.7962
  A 10.69 9.43 -8.1 0 1 431.0813 79.9541
  A 10.69 9.43 -8.1 0 1 442.9934 87.7838
  Z
  M 433.7749 96.7098
  A 7.60 4.93 77.5 0 0 436.9431 88.2230
  A 7.60 4.93 77.5 0 0 430.4851 81.8702
  A 7.60 4.93 77.5 0 0 427.3169 90.3570
  A 7.60 4.93 77.5 0 0 433.7749 96.7098
  Z"
/>
<path fill="#000000" d="
  M 483.08 84.06
  Q 488.96 77.33 496.69 81.21
  A 2.54 2.53 28.2 0 1 497.76 84.72
  Q 497.06 85.95 495.88 85.80
  C 494.18 85.59 492.64 82.61 489.65 82.20
  A 1.88 1.87 18.3 0 0 487.76 83.15
  C 484.20 89.63 488.41 101.08 496.72 94.12
  A 0.61 0.60 -42.8 0 1 497.53 94.15
  L 497.80 94.42
  Q 498.04 94.67 497.80 94.91
  Q 491.88 100.67 484.43 97.07
  C 479.65 94.76 480.16 87.41 483.08 84.06
  Z"
/>
<rect fill="#000000" x="-7.48" y="-2.00" transform="translate(249.52,89.00) rotate(-0.3)" width="14.96" height="4.00" rx="1.10"/>
</svg>
