<?xml version="1.0" encoding="UTF-8" standalone="no"?>
<!DOCTYPE svg PUBLIC "-//W3C//DTD SVG 1.1//EN" "http://www.w3.org/Graphics/SVG/1.1/DTD/svg11.dtd">
<svg xmlns="http://www.w3.org/2000/svg" version="1.1" viewBox="0.00 0.00 607.00 174.00">
<g stroke-width="2.00" fill="none" stroke-linecap="butt">
<path stroke="#737373" vector-effect="non-scaling-stroke" d="
  M 130.82 68.44
  C 118.69 58.32 102.00 61.03 91.96 72.58
  A 0.36 0.36 0.0 0 0 92.26 73.17
  C 112.71 71.76 132.12 84.58 133.13 105.98
  A 0.58 0.57 -75.4 0 0 133.40 106.45
  Q 133.97 106.80 134.55 106.06
  C 143.79 94.46 142.18 77.92 130.82 68.44"
/>
<path stroke="#737373" vector-effect="non-scaling-stroke" d="
  M 342.96 95.92
  L 342.37 85.35
  Q 342.34 84.77 342.84 84.50
  C 345.38 83.11 349.57 81.27 349.84 85.95
  Q 350.12 90.78 349.97 95.67
  A 0.81 0.80 78.2 0 1 349.52 96.36
  L 348.09 97.08
  A 0.48 0.48 0.0 0 0 348.30 97.99
  L 357.57 98.00
  Q 358.20 98.00 357.97 97.41
  Q 357.75 96.85 356.97 97.01
  A 1.41 1.41 0.0 0 1 355.28 95.61
  Q 355.33 90.49 355.06 85.88
  C 354.55 77.28 348.00 79.86 343.11 83.09
  Q 342.50 83.48 342.50 82.76
  L 342.50 69.43
  A 0.46 0.46 0.0 0 0 341.91 68.99
  L 335.30 71.05
  A 0.46 0.46 0.0 0 0 335.16 71.85
  L 336.56 72.92
  A 1.14 1.09 19.5 0 1 337.00 73.80
  L 337.00 96.08
  Q 337.00 96.66 336.42 96.76
  L 334.62 97.05
  A 0.46 0.46 0.0 0 0 334.69 97.96
  L 344.73 98.01
  A 0.48 0.48 0.0 0 0 344.88 97.08
  L 343.51 96.63
  Q 342.99 96.46 342.96 95.92"
/>
<path stroke="#737373" vector-effect="non-scaling-stroke" d="
  M 454.4714 71.9915
  A 3.28 2.77 -6.1 0 0 450.9156 69.5857
  A 3.28 2.77 -6.1 0 0 447.9486 72.6885
  A 3.28 2.77 -6.1 0 0 451.5044 75.0943
  A 3.28 2.77 -6.1 0 0 454.4714 71.9915"
/>
<path stroke="#737373" vector-effect="non-scaling-stroke" d="
  M 272.00 73.47
  L 272.00 94.50
  A 1.18 1.16 -21.7 0 1 271.62 95.36
  Q 269.82 96.99 267.36 96.72
  Q 266.87 96.67 266.97 97.15
  Q 267.06 97.61 267.73 97.94
  A 0.66 0.63 56.0 0 0 268.00 98.00
  L 282.25 98.00
  A 0.69 0.57 -39.0 0 0 282.50 96.76
  L 280.86 96.73
  A 2.93 2.92 -89.4 0 1 278.00 93.80
  L 278.00 73.56
  Q 278.00 72.87 278.69 72.91
  L 285.86 73.29
  Q 286.45 73.33 286.66 73.87
  L 288.24 78.07
  A 0.61 0.61 0.0 0 0 289.42 77.81
  L 288.88 71.20
  Q 288.84 70.70 288.33 70.72
  C 280.16 71.08 269.57 72.01 261.63 70.46
  Q 261.16 70.37 261.10 70.84
  Q 260.72 73.71 260.02 76.50
  Q 259.65 77.97 260.88 78.36
  A 0.62 0.62 0.0 0 0 261.64 77.98
  L 263.15 73.77
  Q 263.38 73.13 264.06 73.11
  L 271.47 72.95
  Q 272.00 72.94 272.00 73.47"
/>
<path stroke="#737373" vector-effect="non-scaling-stroke" d="
  M 181.14 82.60
  C 184.16 79.01 187.28 72.65 192.26 72.47
  Q 193.44 72.42 193.07 71.52
  A 0.83 0.83 0.0 0 0 192.30 71.00
  L 181.55 71.01
  A 0.58 0.58 0.0 0 0 181.34 72.13
  L 183.63 73.00
  A 0.69 0.68 -80.9 0 1 184.06 73.61
  C 184.22 77.76 178.56 82.42 175.29 83.92
  A 0.91 0.91 0.0 0 1 174.00 83.10
  C 174.00 79.92 172.39 71.82 177.71 72.30
  A 0.46 0.46 0.0 0 0 178.22 71.84
  L 178.22 71.39
  A 0.39 0.39 0.0 0 0 177.83 71.00
  L 164.56 71.00
  A 0.58 0.58 0.0 0 0 164.31 72.11
  L 167.43 73.62
  Q 167.98 73.88 167.98 74.49
  Q 168.03 83.99 168.02 93.51
  Q 168.01 97.06 164.57 96.73
  A 0.48 0.48 0.0 0 0 164.04 97.15
  L 163.99 97.46
  Q 163.92 98.00 164.46 98.00
  L 177.67 98.00
  A 0.51 0.51 0.0 0 0 177.80 96.99
  C 172.46 95.61 173.93 90.30 174.02 86.11
  A 0.92 0.92 0.0 0 1 175.53 85.42
  Q 180.62 89.58 184.16 95.18
  Q 184.52 95.75 183.89 95.99
  L 181.23 97.01
  A 0.52 0.52 0.0 0 0 181.42 98.02
  Q 196.76 97.90 211.75 98.02
  Q 212.18 98.02 212.23 97.54
  A 0.52 0.51 -80.6 0 0 211.83 96.98
  L 207.51 95.97
  A 0.66 0.66 0.0 0 1 207.00 95.33
  L 207.00 87.09
  A 0.57 0.57 0.0 0 1 207.68 86.53
  C 213.23 87.59 220.94 86.66 222.47 80.28
  C 225.49 67.67 203.11 70.55 197.16 71.14
  A 0.54 0.54 0.0 0 0 197.19 72.21
  C 199.87 72.33 200.98 74.02 200.99 76.65
  Q 201.05 84.96 201.11 93.24
  Q 201.14 95.83 199.45 96.48
  C 195.63 97.94 192.18 95.98 189.63 92.72
  Q 185.72 87.73 181.18 83.30
  Q 180.83 82.96 181.14 82.60"
/>
<path stroke="#737373" vector-effect="non-scaling-stroke" d="
  M 384.94 86.38
  C 401.92 90.74 406.78 70.59 390.24 70.61
  Q 382.64 70.62 375.01 71.03
  Q 374.49 71.06 374.54 71.57
  Q 374.56 71.78 374.74 71.97
  C 375.39 72.68 377.30 72.63 378.38 73.74
  Q 378.75 74.12 378.75 74.63
  C 378.75 81.01 379.68 89.83 378.32 95.91
  Q 378.20 96.45 377.66 96.52
  L 375.40 96.83
  Q 374.94 96.90 375.00 97.36
  L 375.04 97.65
  A 0.42 0.41 -4.0 0 0 375.45 98.00
  L 389.60 98.00
  Q 389.83 98.00 389.90 97.78
  Q 389.95 97.65 390.00 97.52
  A 0.42 0.41 -74.3 0 0 389.70 96.98
  L 385.79 96.07
  Q 384.98 95.88 384.93 95.06
  L 384.37 86.84
  Q 384.33 86.22 384.94 86.38"
/>
<path stroke="#737373" vector-effect="non-scaling-stroke" d="
  M 238.99 97.04
  C 236.43 96.53 235.03 95.43 235.02 92.60
  Q 234.97 83.62 235.01 75.21
  A 2.38 2.37 -10.7 0 1 236.53 73.00
  L 238.93 72.06
  A 0.55 0.55 0.0 0 0 238.73 71.00
  L 225.51 71.00
  A 0.62 0.62 0.0 0 0 225.30 72.20
  L 228.44 73.37
  Q 229.00 73.58 229.00 74.18
  Q 229.01 83.34 229.00 92.50
  C 228.99 95.11 228.44 96.96 225.46 96.75
  A 0.41 0.41 0.0 0 0 225.03 97.16
  L 225.03 97.61
  A 0.39 0.39 0.0 0 0 225.42 98.00
  L 238.90 98.00
  A 0.49 0.48 50.4 0 0 238.99 97.04"
/>
<path stroke="#737373" vector-effect="non-scaling-stroke" d="
  M 131.30 102.70
  C 127.82 83.51 109.87 71.80 90.76 75.12
  Q 90.26 75.21 89.99 75.65
  C 81.87 89.13 87.51 106.77 101.57 113.50
  A 0.20 0.20 0.0 0 0 101.82 113.20
  Q 91.27 98.92 96.39 81.61
  A 0.64 0.64 0.0 0 1 97.02 81.15
  Q 120.98 81.52 130.89 102.83
  A 0.22 0.22 0.0 0 0 131.30 102.70"
/>
<path stroke="#737373" vector-effect="non-scaling-stroke" d="
  M 509.00 80.25
  L 509.00 75.51
  A 0.68 0.68 0.0 0 0 507.72 75.18
  Q 505.43 79.31 501.44 81.84
  A 0.45 0.45 0.0 0 0 501.68 82.67
  L 503.11 82.67
  Q 503.75 82.67 503.75 83.30
  C 503.75 86.65 503.11 93.36 504.39 96.06
  C 506.44 100.38 512.85 97.83 514.84 94.46
  Q 515.26 93.76 514.47 93.97
  Q 513.31 94.29 512.61 95.30
  A 1.07 1.06 -75.5 0 1 511.89 95.73
  Q 509.02 96.09 508.99 93.25
  Q 508.95 88.16 509.03 83.00
  Q 509.04 82.47 509.57 82.48
  L 513.38 82.55
  Q 514.00 82.56 514.00 81.94
  L 514.00 81.25
  Q 514.00 80.75 513.50 80.75
  L 509.50 80.75
  Q 509.00 80.75 509.00 80.25"
/>
<path stroke="#737373" vector-effect="non-scaling-stroke" d="
  M 411.00 83.48
  L 411.00 80.79
  A 1.07 1.07 0.0 0 0 409.55 79.79
  L 403.33 82.20
  A 0.58 0.57 -52.4 0 0 403.47 83.31
  Q 406.05 83.57 406.03 86.23
  C 406.01 89.35 407.36 96.54 403.11 97.18
  A 0.18 0.18 0.0 0 0 402.97 97.41
  Q 403.02 97.55 403.07 97.69
  Q 403.18 98.00 403.52 98.00
  L 414.96 97.99
  A 0.44 0.44 0.0 0 0 415.05 97.12
  L 412.43 96.54
  Q 411.92 96.42 411.69 95.95
  C 410.57 93.61 410.88 89.23 411.22 86.75
  A 2.34 2.34 0.0 0 1 414.01 84.79
  L 417.29 85.48
  Q 417.75 85.58 417.92 85.14
  L 419.11 82.00
  A 0.73 0.73 0.0 0 0 418.66 81.04
  L 415.06 79.85
  A 0.96 0.96 0.0 0 0 413.97 80.23
  L 411.64 83.67
  A 0.35 0.35 0.0 0 1 411.00 83.48"
/>
<path stroke="#737373" vector-effect="non-scaling-stroke" d="
  M 446.58 105.81
  C 444.98 104.63 443.43 102.62 441.19 103.63
  A 2.06 2.06 0.0 0 0 440.50 106.89
  Q 440.92 107.35 441.96 107.80
  Q 442.73 108.13 443.62 108.10
  C 452.62 107.84 453.96 101.69 454.00 93.72
  Q 454.03 86.92 453.98 80.04
  Q 453.98 79.38 453.34 79.57
  L 446.22 81.74
  A 0.55 0.55 0.0 0 0 446.26 82.81
  Q 448.49 83.31 448.56 85.31
  C 448.70 89.46 449.87 102.70 447.47 105.69
  Q 447.08 106.17 446.58 105.81"
/>
<path stroke="#737373" vector-effect="non-scaling-stroke" d="
  M 299.55 89.06
  L 310.28 88.97
  Q 310.75 88.97 310.69 88.50
  C 309.00 75.66 292.97 78.40 292.99 90.25
  Q 293.00 94.57 296.18 96.82
  C 300.89 100.14 306.52 97.60 309.81 93.42
  A 0.39 0.39 0.0 0 0 309.28 92.86
  Q 307.63 93.99 305.67 95.14
  C 302.25 97.17 299.07 92.52 298.99 89.64
  A 0.56 0.56 0.0 0 1 299.55 89.06"
/>
<path stroke="#737373" vector-effect="non-scaling-stroke" d="
  M 316.44 84.44
  C 307.62 95.05 326.25 103.84 331.63 94.50
  A 0.59 0.59 0.0 0 0 330.69 93.81
  C 326.86 97.95 321.90 96.65 320.31 91.46
  C 319.57 89.02 319.69 81.67 323.74 81.76
  C 325.60 81.81 327.17 83.78 328.51 84.99
  A 2.19 2.19 0.0 0 0 332.13 83.73
  Q 332.28 82.83 331.35 81.79
  C 327.63 77.60 319.30 81.00 316.44 84.44"
/>
<path stroke="#737373" vector-effect="non-scaling-stroke" d="
  M 442.7020 87.7538
  A 10.56 9.18 -8.2 0 0 430.9407 80.1739
  A 10.56 9.18 -8.2 0 0 421.7980 90.7662
  A 10.56 9.18 -8.2 0 0 433.5593 98.3461
  A 10.56 9.18 -8.2 0 0 442.7020 87.7538"
/>
<path stroke="#737373" vector-effect="non-scaling-stroke" d="
  M 465.59 89.01
  L 476.27 89.00
  A 0.51 0.51 0.0 0 0 476.78 88.44
  C 475.72 77.03 461.55 77.56 459.67 88.27
  C 457.78 98.98 468.88 100.79 475.56 94.33
  Q 476.29 93.62 475.93 92.87
  Q 475.66 92.33 475.28 92.80
  C 471.51 97.43 465.63 95.25 464.98 89.69
  A 0.61 0.61 0.0 0 1 465.59 89.01"
/>
<path stroke="#737373" vector-effect="non-scaling-stroke" d="
  M 497.16 93.92
  C 488.37 100.78 484.00 90.76 487.12 83.95
  C 489.20 79.42 492.83 83.55 494.83 85.09
  A 2.13 2.13 0.0 0 0 497.82 84.69
  C 498.81 83.38 497.91 81.92 496.61 81.22
  C 489.82 77.55 480.48 82.72 480.86 90.68
  C 481.30 99.64 492.78 99.94 497.79 94.87
  Q 498.00 94.66 498.02 94.46
  Q 498.05 94.21 497.90 94.01
  Q 497.58 93.59 497.16 93.92"
/>
<path stroke="#737373" vector-effect="non-scaling-stroke" d="
  M 256.99 88.01
  A 0.52 0.52 0.0 0 0 256.47 87.49
  L 242.51 87.49
  A 0.52 0.52 0.0 0 0 241.99 88.01
  L 241.99 90.73
  A 0.52 0.52 0.0 0 0 242.51 91.25
  L 256.47 91.25
  A 0.52 0.52 0.0 0 0 256.99 90.73
  L 256.99 88.01"
/>
<path stroke="#737373" vector-effect="non-scaling-stroke" d="
  M 128.82 70.18
  C 120.46 62.99 107.72 63.36 98.78 69.12
  Q 98.27 69.45 98.75 69.83
  C 99.93 70.77 101.40 70.61 102.55 70.82
  Q 127.61 75.31 134.90 99.56
  A 0.54 0.53 -43.1 0 0 135.91 99.59
  Q 142.54 81.96 128.82 70.18"
/>
<path stroke="#737373" vector-effect="non-scaling-stroke" d="
  M 207.00 73.17
  L 207.00 83.99
  A 1.05 1.05 0.0 0 0 208.05 85.04
  L 210.90 85.04
  A 5.10 4.91 0.0 0 0 216.00 80.13
  L 216.00 77.03
  A 5.10 4.91 -0.0 0 0 210.90 72.12
  L 208.05 72.12
  A 1.05 1.05 0.0 0 0 207.00 73.17"
/>
<path stroke="#737373" vector-effect="non-scaling-stroke" d="
  M 384.49 73.38
  L 384.51 83.82
  A 1.24 1.24 0.0 0 0 385.75 85.06
  L 388.74 85.05
  A 5.29 5.12 -0.1 0 0 394.02 79.92
  L 394.02 77.24
  A 5.29 5.12 -0.1 0 0 388.72 72.13
  L 385.73 72.14
  A 1.24 1.24 0.0 0 0 384.49 73.38"
/>
<path stroke="#737373" vector-effect="non-scaling-stroke" d="
  M 299.05 87.79
  L 304.01 87.73
  A 0.79 0.79 0.0 0 0 304.79 86.93
  L 304.78 86.78
  A 4.92 3.24 89.3 0 0 301.48 81.90
  L 301.42 81.90
  A 4.92 3.24 89.3 0 0 298.24 86.86
  L 298.25 87.01
  A 0.79 0.79 0.0 0 0 299.05 87.79"
/>
<path stroke="#737373" vector-effect="non-scaling-stroke" d="
  M 433.9233 96.7775
  A 7.78 4.84 76.9 0 0 436.8740 88.1030
  A 7.78 4.84 76.9 0 0 430.3967 81.6225
  A 7.78 4.84 76.9 0 0 427.4460 90.2970
  A 7.78 4.84 76.9 0 0 433.9233 96.7775"
/>
<path stroke="#737373" vector-effect="non-scaling-stroke" d="
  M 465.66 87.80
  L 470.32 87.70
  A 0.67 0.67 0.0 0 0 470.98 87.02
  L 470.95 85.70
  A 3.77 2.60 88.8 0 0 468.27 81.98
  L 467.47 82.00
  A 3.77 2.60 88.8 0 0 464.95 85.82
  L 464.98 87.14
  A 0.67 0.67 0.0 0 0 465.66 87.80"
/>
</g>
<path fill="#e6e6e6" d="
  M 0.00 0.00
  L 607.00 0.00
  L 607.00 174.00
  L 0.00 174.00
  L 0.00 0.00
  Z
  M 130.82 68.44
  C 118.69 58.32 102.00 61.03 91.96 72.58
  A 0.36 0.36 0.0 0 0 92.26 73.17
  C 112.71 71.76 132.12 84.58 133.13 105.98
  A 0.58 0.57 -75.4 0 0 133.40 106.45
  Q 133.97 106.80 134.55 106.06
  C 143.79 94.46 142.18 77.92 130.82 68.44
  Z
  M 342.96 95.92
  L 342.37 85.35
  Q 342.34 84.77 342.84 84.50
  C 345.38 83.11 349.57 81.27 349.84 85.95
  Q 350.12 90.78 349.97 95.67
  A 0.81 0.80 78.2 0 1 349.52 96.36
  L 348.09 97.08
  A 0.48 0.48 0.0 0 0 348.30 97.99
  L 357.57 98.00
  Q 358.20 98.00 357.97 97.41
  Q 357.75 96.85 356.97 97.01
  A 1.41 1.41 0.0 0 1 355.28 95.61
  Q 355.33 90.49 355.06 85.88
  C 354.55 77.28 348.00 79.86 343.11 83.09
  Q 342.50 83.48 342.50 82.76
  L 342.50 69.43
  A 0.46 0.46 0.0 0 0 341.91 68.99
  L 335.30 71.05
  A 0.46 0.46 0.0 0 0 335.16 71.85
  L 336.56 72.92
  A 1.14 1.09 19.5 0 1 337.00 73.80
  L 337.00 96.08
  Q 337.00 96.66 336.42 96.76
  L 334.62 97.05
  A 0.46 0.46 0.0 0 0 334.69 97.96
  L 344.73 98.01
  A 0.48 0.48 0.0 0 0 344.88 97.08
  L 343.51 96.63
  Q 342.99 96.46 342.96 95.92
  Z
  M 454.4714 71.9915
  A 3.28 2.77 -6.1 0 0 450.9156 69.5857
  A 3.28 2.77 -6.1 0 0 447.9486 72.6885
  A 3.28 2.77 -6.1 0 0 451.5044 75.0943
  A 3.28 2.77 -6.1 0 0 454.4714 71.9915
  Z
  M 272.00 73.47
  L 272.00 94.50
  A 1.18 1.16 -21.7 0 1 271.62 95.36
  Q 269.82 96.99 267.36 96.72
  Q 266.87 96.67 266.97 97.15
  Q 267.06 97.61 267.73 97.94
  A 0.66 0.63 56.0 0 0 268.00 98.00
  L 282.25 98.00
  A 0.69 0.57 -39.0 0 0 282.50 96.76
  L 280.86 96.73
  A 2.93 2.92 -89.4 0 1 278.00 93.80
  L 278.00 73.56
  Q 278.00 72.87 278.69 72.91
  L 285.86 73.29
  Q 286.45 73.33 286.66 73.87
  L 288.24 78.07
  A 0.61 0.61 0.0 0 0 289.42 77.81
  L 288.88 71.20
  Q 288.84 70.70 288.33 70.72
  C 280.16 71.08 269.57 72.01 261.63 70.46
  Q 261.16 70.37 261.10 70.84
  Q 260.72 73.71 260.02 76.50
  Q 259.65 77.97 260.88 78.36
  A 0.62 0.62 0.0 0 0 261.64 77.98
  L 263.15 73.77
  Q 263.38 73.13 264.06 73.11
  L 271.47 72.95
  Q 272.00 72.94 272.00 73.47
  Z
  M 181.14 82.60
  C 184.16 79.01 187.28 72.65 192.26 72.47
  Q 193.44 72.42 193.07 71.52
  A 0.83 0.83 0.0 0 0 192.30 71.00
  L 181.55 71.01
  A 0.58 0.58 0.0 0 0 181.34 72.13
  L 183.63 73.00
  A 0.69 0.68 -80.9 0 1 184.06 73.61
  C 184.22 77.76 178.56 82.42 175.29 83.92
  A 0.91 0.91 0.0 0 1 174.00 83.10
  C 174.00 79.92 172.39 71.82 177.71 72.30
  A 0.46 0.46 0.0 0 0 178.22 71.84
  L 178.22 71.39
  A 0.39 0.39 0.0 0 0 177.83 71.00
  L 164.56 71.00
  A 0.58 0.58 0.0 0 0 164.31 72.11
  L 167.43 73.62
  Q 167.98 73.88 167.98 74.49
  Q 168.03 83.99 168.02 93.51
  Q 168.01 97.06 164.57 96.73
  A 0.48 0.48 0.0 0 0 164.04 97.15
  L 163.99 97.46
  Q 163.92 98.00 164.46 98.00
  L 177.67 98.00
  A 0.51 0.51 0.0 0 0 177.80 96.99
  C 172.46 95.61 173.93 90.30 174.02 86.11
  A 0.92 0.92 0.0 0 1 175.53 85.42
  Q 180.62 89.58 184.16 95.18
  Q 184.52 95.75 183.89 95.99
  L 181.23 97.01
  A 0.52 0.52 0.0 0 0 181.42 98.02
  Q 196.76 97.90 211.75 98.02
  Q 212.18 98.02 212.23 97.54
  A 0.52 0.51 -80.6 0 0 211.83 96.98
  L 207.51 95.97
  A 0.66 0.66 0.0 0 1 207.00 95.33
  L 207.00 87.09
  A 0.57 0.57 0.0 0 1 207.68 86.53
  C 213.23 87.59 220.94 86.66 222.47 80.28
  C 225.49 67.67 203.11 70.55 197.16 71.14
  A 0.54 0.54 0.0 0 0 197.19 72.21
  C 199.87 72.33 200.98 74.02 200.99 76.65
  Q 201.05 84.96 201.11 93.24
  Q 201.14 95.83 199.45 96.48
  C 195.63 97.94 192.18 95.98 189.63 92.72
  Q 185.72 87.73 181.18 83.30
  Q 180.83 82.96 181.14 82.60
  Z
  M 384.94 86.38
  C 401.92 90.74 406.78 70.59 390.24 70.61
  Q 382.64 70.62 375.01 71.03
  Q 374.49 71.06 374.54 71.57
  Q 374.56 71.78 374.74 71.97
  C 375.39 72.68 377.30 72.63 378.38 73.74
  Q 378.75 74.12 378.75 74.63
  C 378.75 81.01 379.68 89.83 378.32 95.91
  Q 378.20 96.45 377.66 96.52
  L 375.40 96.83
  Q 374.94 96.90 375.00 97.36
  L 375.04 97.65
  A 0.42 0.41 -4.0 0 0 375.45 98.00
  L 389.60 98.00
  Q 389.83 98.00 389.90 97.78
  Q 389.95 97.65 390.00 97.52
  A 0.42 0.41 -74.3 0 0 389.70 96.98
  L 385.79 96.07
  Q 384.98 95.88 384.93 95.06
  L 384.37 86.84
  Q 384.33 86.22 384.94 86.38
  Z
  M 238.99 97.04
  C 236.43 96.53 235.03 95.43 235.02 92.60
  Q 234.97 83.62 235.01 75.21
  A 2.38 2.37 -10.7 0 1 236.53 73.00
  L 238.93 72.06
  A 0.55 0.55 0.0 0 0 238.73 71.00
  L 225.51 71.00
  A 0.62 0.62 0.0 0 0 225.30 72.20
  L 228.44 73.37
  Q 229.00 73.58 229.00 74.18
  Q 229.01 83.34 229.00 92.50
  C 228.99 95.11 228.44 96.96 225.46 96.75
  A 0.41 0.41 0.0 0 0 225.03 97.16
  L 225.03 97.61
  A 0.39 0.39 0.0 0 0 225.42 98.00
  L 238.90 98.00
  A 0.49 0.48 50.4 0 0 238.99 97.04
  Z
  M 131.30 102.70
  C 127.82 83.51 109.87 71.80 90.76 75.12
  Q 90.26 75.21 89.99 75.65
  C 81.87 89.13 87.51 106.77 101.57 113.50
  A 0.20 0.20 0.0 0 0 101.82 113.20
  Q 91.27 98.92 96.39 81.61
  A 0.64 0.64 0.0 0 1 97.02 81.15
  Q 120.98 81.52 130.89 102.83
  A 0.22 0.22 0.0 0 0 131.30 102.70
  Z
  M 509.00 80.25
  L 509.00 75.51
  A 0.68 0.68 0.0 0 0 507.72 75.18
  Q 505.43 79.31 501.44 81.84
  A 0.45 0.45 0.0 0 0 501.68 82.67
  L 503.11 82.67
  Q 503.75 82.67 503.75 83.30
  C 503.75 86.65 503.11 93.36 504.39 96.06
  C 506.44 100.38 512.85 97.83 514.84 94.46
  Q 515.26 93.76 514.47 93.97
  Q 513.31 94.29 512.61 95.30
  A 1.07 1.06 -75.5 0 1 511.89 95.73
  Q 509.02 96.09 508.99 93.25
  Q 508.95 88.16 509.03 83.00
  Q 509.04 82.47 509.57 82.48
  L 513.38 82.55
  Q 514.00 82.56 514.00 81.94
  L 514.00 81.25
  Q 514.00 80.75 513.50 80.75
  L 509.50 80.75
  Q 509.00 80.75 509.00 80.25
  Z
  M 411.00 83.48
  L 411.00 80.79
  A 1.07 1.07 0.0 0 0 409.55 79.79
  L 403.33 82.20
  A 0.58 0.57 -52.4 0 0 403.47 83.31
  Q 406.05 83.57 406.03 86.23
  C 406.01 89.35 407.36 96.54 403.11 97.18
  A 0.18 0.18 0.0 0 0 402.97 97.41
  Q 403.02 97.55 403.07 97.69
  Q 403.18 98.00 403.52 98.00
  L 414.96 97.99
  A 0.44 0.44 0.0 0 0 415.05 97.12
  L 412.43 96.54
  Q 411.92 96.42 411.69 95.95
  C 410.57 93.61 410.88 89.23 411.22 86.75
  A 2.34 2.34 0.0 0 1 414.01 84.79
  L 417.29 85.48
  Q 417.75 85.58 417.92 85.14
  L 419.11 82.00
  A 0.73 0.73 0.0 0 0 418.66 81.04
  L 415.06 79.85
  A 0.96 0.96 0.0 0 0 413.97 80.23
  L 411.64 83.67
  A 0.35 0.35 0.0 0 1 411.00 83.48
  Z
  M 446.58 105.81
  C 444.98 104.63 443.43 102.62 441.19 103.63
  A 2.06 2.06 0.0 0 0 440.50 106.89
  Q 440.92 107.35 441.96 107.80
  Q 442.73 108.13 443.62 108.10
  C 452.62 107.84 453.96 101.69 454.00 93.72
  Q 454.03 86.92 453.98 80.04
  Q 453.98 79.38 453.34 79.57
  L 446.22 81.74
  A 0.55 0.55 0.0 0 0 446.26 82.81
  Q 448.49 83.31 448.56 85.31
  C 448.70 89.46 449.87 102.70 447.47 105.69
  Q 447.08 106.17 446.58 105.81
  Z
  M 299.55 89.06
  L 310.28 88.97
  Q 310.75 88.97 310.69 88.50
  C 309.00 75.66 292.97 78.40 292.99 90.25
  Q 293.00 94.57 296.18 96.82
  C 300.89 100.14 306.52 97.60 309.81 93.42
  A 0.39 0.39 0.0 0 0 309.28 92.86
  Q 307.63 93.99 305.67 95.14
  C 302.25 97.17 299.07 92.52 298.99 89.64
  A 0.56 0.56 0.0 0 1 299.55 89.06
  Z
  M 316.44 84.44
  C 307.62 95.05 326.25 103.84 331.63 94.50
  A 0.59 0.59 0.0 0 0 330.69 93.81
  C 326.86 97.95 321.90 96.65 320.31 91.46
  C 319.57 89.02 319.69 81.67 323.74 81.76
  C 325.60 81.81 327.17 83.78 328.51 84.99
  A 2.19 2.19 0.0 0 0 332.13 83.73
  Q 332.28 82.83 331.35 81.79
  C 327.63 77.60 319.30 81.00 316.44 84.44
  Z
  M 442.7020 87.7538
  A 10.56 9.18 -8.2 0 0 430.9407 80.1739
  A 10.56 9.18 -8.2 0 0 421.7980 90.7662
  A 10.56 9.18 -8.2 0 0 433.5593 98.3461
  A 10.56 9.18 -8.2 0 0 442.7020 87.7538
  Z
  M 465.59 89.01
  L 476.27 89.00
  A 0.51 0.51 0.0 0 0 476.78 88.44
  C 475.72 77.03 461.55 77.56 459.67 88.27
  C 457.78 98.98 468.88 100.79 475.56 94.33
  Q 476.29 93.62 475.93 92.87
  Q 475.66 92.33 475.28 92.80
  C 471.51 97.43 465.63 95.25 464.98 89.69
  A 0.61 0.61 0.0 0 1 465.59 89.01
  Z
  M 497.16 93.92
  C 488.37 100.78 484.00 90.76 487.12 83.95
  C 489.20 79.42 492.83 83.55 494.83 85.09
  A 2.13 2.13 0.0 0 0 497.82 84.69
  C 498.81 83.38 497.91 81.92 496.61 81.22
  C 489.82 77.55 480.48 82.72 480.86 90.68
  C 481.30 99.64 492.78 99.94 497.79 94.87
  Q 498.00 94.66 498.02 94.46
  Q 498.05 94.21 497.90 94.01
  Q 497.58 93.59 497.16 93.92
  Z
  M 256.99 88.01
  A 0.52 0.52 0.0 0 0 256.47 87.49
  L 242.51 87.49
  A 0.52 0.52 0.0 0 0 241.99 88.01
  L 241.99 90.73
  A 0.52 0.52 0.0 0 0 242.51 91.25
  L 256.47 91.25
  A 0.52 0.52 0.0 0 0 256.99 90.73
  L 256.99 88.01
  Z"
/>
<path fill="#000000" d="
  M 130.82 68.44
  C 142.18 77.92 143.79 94.46 134.55 106.06
  Q 133.97 106.80 133.40 106.45
  A 0.58 0.57 -75.4 0 1 133.13 105.98
  C 132.12 84.58 112.71 71.76 92.26 73.17
  A 0.36 0.36 0.0 0 1 91.96 72.58
  C 102.00 61.03 118.69 58.32 130.82 68.44
  Z
  M 128.82 70.18
  C 120.46 62.99 107.72 63.36 98.78 69.12
  Q 98.27 69.45 98.75 69.83
  C 99.93 70.77 101.40 70.61 102.55 70.82
  Q 127.61 75.31 134.90 99.56
  A 0.54 0.53 -43.1 0 0 135.91 99.59
  Q 142.54 81.96 128.82 70.18
  Z"
/>
<path fill="#e6e6e6" d="
  M 128.82 70.18
  Q 142.54 81.96 135.91 99.59
  A 0.54 0.53 -43.1 0 1 134.90 99.56
  Q 127.61 75.31 102.55 70.82
  C 101.40 70.61 99.93 70.77 98.75 69.83
  Q 98.27 69.45 98.78 69.12
  C 107.72 63.36 120.46 62.99 128.82 70.18
  Z"
/>
<path fill="#000000" d="
  M 343.51 96.63
  L 344.88 97.08
  A 0.48 0.48 0.0 0 1 344.73 98.01
  L 334.69 97.96
  A 0.46 0.46 0.0 0 1 334.62 97.05
  L 336.42 96.76
  Q 337.00 96.66 337.00 96.08
  L 337.00 73.80
  A 1.14 1.09 19.5 0 0 336.56 72.92
  L 335.16 71.85
  A 0.46 0.46 0.0 0 1 335.30 71.05
  L 341.91 68.99
  A 0.46 0.46 0.0 0 1 342.50 69.43
  L 342.50 82.76
  Q 342.50 83.48 343.11 83.09
  C 348.00 79.86 354.55 77.28 355.06 85.88
  Q 355.33 90.49 355.28 95.61
  A 1.41 1.41 0.0 0 0 356.97 97.01
  Q 357.75 96.85 357.97 97.41
  Q 358.20 98.00 357.57 98.00
  L 348.30 97.99
  A 0.48 0.48 0.0 0 1 348.09 97.08
  L 349.52 96.36
  A 0.81 0.80 78.2 0 0 349.97 95.67
  Q 350.12 90.78 349.84 85.95
  C 349.57 81.27 345.38 83.11 342.84 84.50
  Q 342.34 84.77 342.37 85.35
  L 342.96 95.92
  Q 342.99 96.46 343.51 96.63
  Z"
/>
<ellipse fill="#000000" cx="0.00" cy="0.00" transform="translate(451.21,72.34) rotate(-6.1)" rx="3.28" ry="2.77"/>
<path fill="#000000" d="
  M 271.47 72.95
  L 264.06 73.11
  Q 263.38 73.13 263.15 73.77
  L 261.64 77.98
  A 0.62 0.62 0.0 0 1 260.88 78.36
  Q 259.65 77.97 260.02 76.50
  Q 260.72 73.71 261.10 70.84
  Q 261.16 70.37 261.63 70.46
  C 269.57 72.01 280.16 71.08 288.33 70.72
  Q 288.84 70.70 288.88 71.20
  L 289.42 77.81
  A 0.61 0.61 0.0 0 1 288.24 78.07
  L 286.66 73.87
  Q 286.45 73.33 285.86 73.29
  L 278.69 72.91
  Q 278.00 72.87 278.00 73.56
  L 278.00 93.80
  A 2.93 2.92 -89.4 0 0 280.86 96.73
  L 282.50 96.76
  A 0.69 0.57 -39.0 0 1 282.25 98.00
  L 268.00 98.00
  A 0.66 0.63 56.0 0 1 267.73 97.94
  Q 267.06 97.61 266.97 97.15
  Q 266.87 96.67 267.36 96.72
  Q 269.82 96.99 271.62 95.36
  A 1.18 1.16 -21.7 0 0 272.00 94.50
  L 272.00 73.47
  Q 272.00 72.94 271.47 72.95
  Z"
/>
<path fill="#000000" d="
  M 181.18 83.30
  Q 185.72 87.73 189.63 92.72
  C 192.18 95.98 195.63 97.94 199.45 96.48
  Q 201.14 95.83 201.11 93.24
  Q 201.05 84.96 200.99 76.65
  C 200.98 74.02 199.87 72.33 197.19 72.21
  A 0.54 0.54 0.0 0 1 197.16 71.14
  C 203.11 70.55 225.49 67.67 222.47 80.28
  C 220.94 86.66 213.23 87.59 207.68 86.53
  A 0.57 0.57 0.0 0 0 207.00 87.09
  L 207.00 95.33
  A 0.66 0.66 0.0 0 0 207.51 95.97
  L 211.83 96.98
  A 0.52 0.51 -80.6 0 1 212.23 97.54
  Q 212.18 98.02 211.75 98.02
  Q 196.76 97.90 181.42 98.02
  A 0.52 0.52 0.0 0 1 181.23 97.01
  L 183.89 95.99
  Q 184.52 95.75 184.16 95.18
  Q 180.62 89.58 175.53 85.42
  A 0.92 0.92 0.0 0 0 174.02 86.11
  C 173.93 90.30 172.46 95.61 177.80 96.99
  A 0.51 0.51 0.0 0 1 177.67 98.00
  L 164.46 98.00
  Q 163.92 98.00 163.99 97.46
  L 164.04 97.15
  A 0.48 0.48 0.0 0 1 164.57 96.73
  Q 168.01 97.06 168.02 93.51
  Q 168.03 83.99 167.98 74.49
  Q 167.98 73.88 167.43 73.62
  L 164.31 72.11
  A 0.58 0.58 0.0 0 1 164.56 71.00
  L 177.83 71.00
  A 0.39 0.39 0.0 0 1 178.22 71.39
  L 178.22 71.84
  A 0.46 0.46 0.0 0 1 177.71 72.30
  C 172.39 71.82 174.00 79.92 174.00 83.10
  A 0.91 0.91 0.0 0 0 175.29 83.92
  C 178.56 82.42 184.22 77.76 184.06 73.61
  A 0.69 0.68 -80.9 0 0 183.63 73.00
  L 181.34 72.13
  A 0.58 0.58 0.0 0 1 181.55 71.01
  L 192.30 71.00
  A 0.83 0.83 0.0 0 1 193.07 71.52
  Q 193.44 72.42 192.26 72.47
  C 187.28 72.65 184.16 79.01 181.14 82.60
  Q 180.83 82.96 181.18 83.30
  Z
  M 207.00 73.17
  L 207.00 83.99
  A 1.05 1.05 0.0 0 0 208.05 85.04
  L 210.90 85.04
  A 5.10 4.91 0.0 0 0 216.00 80.13
  L 216.00 77.03
  A 5.10 4.91 -0.0 0 0 210.90 72.12
  L 208.05 72.12
  A 1.05 1.05 0.0 0 0 207.00 73.17
  Z"
/>
<path fill="#000000" d="
  M 384.37 86.84
  L 384.93 95.06
  Q 384.98 95.88 385.79 96.07
  L 389.70 96.98
  A 0.42 0.41 -74.3 0 1 390.00 97.52
  Q 389.95 97.65 389.90 97.78
  Q 389.83 98.00 389.60 98.00
  L 375.45 98.00
  A 0.42 0.41 -4.0 0 1 375.04 97.65
  L 375.00 97.36
  Q 374.94 96.90 375.40 96.83
  L 377.66 96.52
  Q 378.20 96.45 378.32 95.91
  C 379.68 89.83 378.75 81.01 378.75 74.63
  Q 378.75 74.12 378.38 73.74
  C 377.30 72.63 375.39 72.68 374.74 71.97
  Q 374.56 71.78 374.54 71.57
  Q 374.49 71.06 375.01 71.03
  Q 382.64 70.62 390.24 70.61
  C 406.78 70.59 401.92 90.74 384.94 86.38
  Q 384.33 86.22 384.37 86.84
  Z
  M 384.49 73.38
  L 384.51 83.82
  A 1.24 1.24 0.0 0 0 385.75 85.06
  L 388.74 85.05
  A 5.29 5.12 -0.1 0 0 394.02 79.92
  L 394.02 77.24
  A 5.29 5.12 -0.1 0 0 388.72 72.13
  L 385.73 72.14
  A 1.24 1.24 0.0 0 0 384.49 73.38
  Z"
/>
<path fill="#000000" d="
  M 238.99 97.04
  A 0.49 0.48 50.4 0 1 238.90 98.00
  L 225.42 98.00
  A 0.39 0.39 0.0 0 1 225.03 97.61
  L 225.03 97.16
  A 0.41 0.41 0.0 0 1 225.46 96.75
  C 228.44 96.96 228.99 95.11 229.00 92.50
  Q 229.01 83.34 229.00 74.18
  Q 229.00 73.58 228.44 73.37
  L 225.30 72.20
  A 0.62 0.62 0.0 0 1 225.51 71.00
  L 238.73 71.00
  A 0.55 0.55 0.0 0 1 238.93 72.06
  L 236.53 73.00
  A 2.38 2.37 -10.7 0 0 235.01 75.21
  Q 234.97 83.62 235.02 92.60
  C 235.03 95.43 236.43 96.53 238.99 97.04
  Z"
/>
<path fill="#e6e6e6" d="
  M 207.00 73.17
  A 1.05 1.05 0.0 0 1 208.05 72.12
  L 210.90 72.12
  A 5.10 4.91 0.0 0 1 216.00 77.03
  L 216.00 80.13
  A 5.10 4.91 0.0 0 1 210.90 85.04
  L 208.05 85.04
  A 1.05 1.05 0.0 0 1 207.00 83.99
  L 207.00 73.17
  Z"
/>
<path fill="#e6e6e6" d="
  M 384.49 73.38
  A 1.24 1.24 0.0 0 1 385.73 72.14
  L 388.72 72.13
  A 5.29 5.12 -0.1 0 1 394.02 77.24
  L 394.02 79.92
  A 5.29 5.12 -0.1 0 1 388.74 85.05
  L 385.75 85.06
  A 1.24 1.24 0.0 0 1 384.51 83.82
  L 384.49 73.38
  Z"
/>
<path fill="#000000" d="
  M 90.76 75.12
  C 109.87 71.80 127.82 83.51 131.30 102.70
  A 0.22 0.22 0.0 0 1 130.89 102.83
  Q 120.98 81.52 97.02 81.15
  A 0.64 0.64 0.0 0 0 96.39 81.61
  Q 91.27 98.92 101.82 113.20
  A 0.20 0.20 0.0 0 1 101.57 113.50
  C 87.51 106.77 81.87 89.13 89.99 75.65
  Q 90.26 75.21 90.76 75.12
  Z"
/>
<path fill="#000000" d="
  M 509.50 80.75
  L 513.50 80.75
  Q 514.00 80.75 514.00 81.25
  L 514.00 81.94
  Q 514.00 82.56 513.38 82.55
  L 509.57 82.48
  Q 509.04 82.47 509.03 83.00
  Q 508.95 88.16 508.99 93.25
  Q 509.02 96.09 511.89 95.73
  A 1.07 1.06 -75.5 0 0 512.61 95.30
  Q 513.31 94.29 514.47 93.97
  Q 515.26 93.76 514.84 94.46
  C 512.85 97.83 506.44 100.38 504.39 96.06
  C 503.11 93.36 503.75 86.65 503.75 83.30
  Q 503.75 82.67 503.11 82.67
  L 501.68 82.67
  A 0.45 0.45 0.0 0 1 501.44 81.84
  Q 505.43 79.31 507.72 75.18
  A 0.68 0.68 0.0 0 1 509.00 75.51
  L 509.00 80.25
  Q 509.00 80.75 509.50 80.75
  Z"
/>
<path fill="#000000" d="
  M 411.00 83.48
  A 0.35 0.35 0.0 0 0 411.64 83.67
  L 413.97 80.23
  A 0.96 0.96 0.0 0 1 415.06 79.85
  L 418.66 81.04
  A 0.73 0.73 0.0 0 1 419.11 82.00
  L 417.92 85.14
  Q 417.75 85.58 417.29 85.48
  L 414.01 84.79
  A 2.34 2.34 0.0 0 0 411.22 86.75
  C 410.88 89.23 410.57 93.61 411.69 95.95
  Q 411.92 96.42 412.43 96.54
  L 415.05 97.12
  A 0.44 0.44 0.0 0 1 414.96 97.99
  L 403.52 98.00
  Q 403.18 98.00 403.07 97.69
  Q 403.02 97.55 402.97 97.41
  A 0.18 0.18 0.0 0 1 403.11 97.18
  C 407.36 96.54 406.01 89.35 406.03 86.23
  Q 406.05 83.57 403.47 83.31
  A 0.58 0.57 -52.4 0 1 403.33 82.20
  L 409.55 79.79
  A 1.07 1.07 0.0 0 1 411.00 80.79
  L 411.00 83.48
  Z"
/>
<path fill="#000000" d="
  M 447.47 105.69
  C 449.87 102.70 448.70 89.46 448.56 85.31
  Q 448.49 83.31 446.26 82.81
  A 0.55 0.55 0.0 0 1 446.22 81.74
  L 453.34 79.57
  Q 453.98 79.38 453.98 80.04
  Q 454.03 86.92 454.00 93.72
  C 453.96 101.69 452.62 107.84 443.62 108.10
  Q 442.73 108.13 441.96 107.80
  Q 440.92 107.35 440.50 106.89
  A 2.06 2.06 0.0 0 1 441.19 103.63
  C 443.43 102.62 444.98 104.63 446.58 105.81
  Q 447.08 106.17 447.47 105.69
  Z"
/>
<path fill="#000000" d="
  M 298.99 89.64
  C 299.07 92.52 302.25 97.17 305.67 95.14
  Q 307.63 93.99 309.28 92.86
  A 0.39 0.39 0.0 0 1 309.81 93.42
  C 306.52 97.60 300.89 100.14 296.18 96.82
  Q 293.00 94.57 292.99 90.25
  C 292.97 78.40 309.00 75.66 310.69 88.50
  Q 310.75 88.97 310.28 88.97
  L 299.55 89.06
  A 0.56 0.56 0.0 0 0 298.99 89.64
  Z
  M 299.05 87.79
  L 304.01 87.73
  A 0.79 0.79 0.0 0 0 304.79 86.93
  L 304.78 86.78
  A 4.92 3.24 89.3 0 0 301.48 81.90
  L 301.42 81.90
  A 4.92 3.24 89.3 0 0 298.24 86.86
  L 298.25 87.01
  A 0.79 0.79 0.0 0 0 299.05 87.79
  Z"
/>
<path fill="#000000" d="
  M 316.44 84.44
  C 319.30 81.00 327.63 77.60 331.35 81.79
  Q 332.28 82.83 332.13 83.73
  A 2.19 2.19 0.0 0 1 328.51 84.99
  C 327.17 83.78 325.60 81.81 323.74 81.76
  C 319.69 81.67 319.57 89.02 320.31 91.46
  C 321.90 96.65 326.86 97.95 330.69 93.81
  A 0.59 0.59 0.0 0 1 331.63 94.50
  C 326.25 103.84 307.62 95.05 316.44 84.44
  Z"
/>
<path fill="#000000" d="
  M 442.7020 87.7538
  A 10.56 9.18 -8.2 0 1 433.5593 98.3461
  A 10.56 9.18 -8.2 0 1 421.7980 90.7662
  A 10.56 9.18 -8.2 0 1 430.9407 80.1739
  A 10.56 9.18 -8.2 0 1 442.7020 87.7538
  Z
  M 433.9233 96.7775
  A 7.78 4.84 76.9 0 0 436.8740 88.1030
  A 7.78 4.84 76.9 0 0 430.3967 81.6225
  A 7.78 4.84 76.9 0 0 427.4460 90.2970
  A 7.78 4.84 76.9 0 0 433.9233 96.7775
  Z"
/>
<path fill="#000000" d="
  M 464.98 89.69
  C 465.63 95.25 471.51 97.43 475.28 92.80
  Q 475.66 92.33 475.93 92.87
  Q 476.29 93.62 475.56 94.33
  C 468.88 100.79 457.78 98.98 459.67 88.27
  C 461.55 77.56 475.72 77.03 476.78 88.44
  A 0.51 0.51 0.0 0 1 476.27 89.00
  L 465.59 89.01
  A 0.61 0.61 0.0 0 0 464.98 89.69
  Z
  M 465.66 87.80
  L 470.32 87.70
  A 0.67 0.67 0.0 0 0 470.98 87.02
  L 470.95 85.70
  A 3.77 2.60 88.8 0 0 468.27 81.98
  L 467.47 82.00
  A 3.77 2.60 88.8 0 0 464.95 85.82
  L 464.98 87.14
  A 0.67 0.67 0.0 0 0 465.66 87.80
  Z"
/>
<path fill="#000000" d="
  M 487.12 83.95
  C 484.00 90.76 488.37 100.78 497.16 93.92
  Q 497.58 93.59 497.90 94.01
  Q 498.05 94.21 498.02 94.46
  Q 498.00 94.66 497.79 94.87
  C 492.78 99.94 481.30 99.64 480.86 90.68
  C 480.48 82.72 489.82 77.55 496.61 81.22
  C 497.91 81.92 498.81 83.38 497.82 84.69
  A 2.13 2.13 0.0 0 1 494.83 85.09
  C 492.83 83.55 489.20 79.42 487.12 83.95
  Z"
/>
<path fill="#e6e6e6" d="
  M 299.05 87.79
  A 0.79 0.79 0.0 0 1 298.25 87.01
  L 298.24 86.86
  A 4.92 3.24 89.3 0 1 301.42 81.90
  L 301.48 81.90
  A 4.92 3.24 89.3 0 1 304.78 86.78
  L 304.79 86.93
  A 0.79 0.79 0.0 0 1 304.01 87.73
  L 299.05 87.79
  Z"
/>
<ellipse fill="#e6e6e6" cx="0.00" cy="0.00" transform="translate(432.16,89.20) rotate(76.9)" rx="7.78" ry="4.84"/>
<path fill="#e6e6e6" d="
  M 465.66 87.80
  A 0.67 0.67 0.0 0 1 464.98 87.14
  L 464.95 85.82
  A 3.77 2.60 88.8 0 1 467.47 82.00
  L 468.27 81.98
  A 3.77 2.60 88.8 0 1 470.95 85.70
  L 470.98 87.02
  A 0.67 0.67 0.0 0 1 470.32 87.70
  L 465.66 87.80
  Z"
/>
<rect fill="#000000" x="241.99" y="87.49" width="15.00" height="3.76" rx="0.52"/>
</svg>
